<svg version="1.2" xmlns="http://www.w3.org/2000/svg" viewBox="0 0 598 717" width="598" height="717">
	<title>New Project</title>
	<style>
		.s0 { opacity: .71;fill: #231f20 } 
		.s1 { opacity: .71;fill: #d5de21 } 
	</style>
	<g id="Layer 1">
		<path id="&lt;Path&gt;" class="s0" d="m-0.2 721.1l271.9-382.8-99.4-142.7h84l59.7 84.7 95.2-132.7h-334.1l111.8 190.3z"/>
		<path id="&lt;Path&gt;" class="s1" d="m231.3 515l81.9-114.7 55.6 70.3 79.2 1.4-91-130.6 241-341-170.9 337.5 116 181.3z"/>
		<path id="&lt;Path&gt;" class="s1" d="m330.7 708.6c105.5 0 196.1 0.6 236.3 1.3-40.2 0.8-130.8 1.4-236.3 1.4-105.5 0-196.1-0.6-236.3-1.4 40.2-0.7 130.8-1.3 236.3-1.3z"/>
		<path id="&lt;Path&gt;" class="s1" d="m382.5 574c82.4 0 153.1 0.5 184.5 1.1-31.4 0.6-102.1 1-184.5 1-82.3 0-153.1-0.4-184.4-1 31.3-0.6 102.1-1.1 184.4-1.1z"/>
	</g>
</svg>