<svg version="1.2" xmlns="http://www.w3.org/2000/svg" viewBox="0 0 595 717" width="595" height="717">
	<title>New Project</title>
	<style>
		.s0 { fill: #fefefe } 
		.s1 { fill: #d5de21 } 
	</style>
	<g id="Folder 1">
		<path id="&lt;Path&gt;" class="s0" d="m0 717l270.5-380.9-99-142h83.6l59.4 84.3 94.7-131.9h-332.3l111.2 189.3z"/>
		<g id="&lt;Group&gt;">
			<path id="&lt;Path&gt;" class="s1" d="m230.2 512l81.6-114.2 55.3 70 78.7 1.3-90.5-129.9 239.8-339.2-170 335.8 115.4 180.3z"/>
		</g>
		<g id="&lt;Group&gt;">
			<path id="&lt;Compound Path&gt;" class="s0" d="m118.4 642.8l0.5-2.6h9.9l-0.2 0.9q-0.1 0.5 0.3 0.9 0.3 0.4 0.8 0.4h18.6l-5.5-1.6 0.5-2.6q0.1-0.5-0.3-0.9-0.3-0.4-0.8-0.4h-15.3q-1.4 0-2.6-0.6-1.2-0.6-2-1.6-0.8-1-1.2-2.3-0.3-1.3 0-2.8l1.5-7.6q0.4-2.1 2.1-3.5 1.6-1.4 3.8-1.4h21.7q1.5 0 2.7 0.6 1.2 0.6 2 1.6 0.8 1 1.2 2.3 0.4 1.3 0.1 2.7l-0.6 2.7h-9.9l0.2-0.9q0.1-0.5-0.2-0.9-0.4-0.4-0.9-0.4h-18.7l5.5 1.6-0.4 2q-0.1 0.5 0.2 0.9 0.3 0.4 0.9 0.4h12.4q1.4 0 2.3 0l0.9 0.1q1.4 0.1 2.5 0.7 1.1 0.7 1.9 1.6 0.7 1 1.1 2.3 0.3 1.2 0 2.6l-1.7 8.2q-0.4 2.2-2 3.5-1.7 1.4-3.9 1.4h-21.5q-1.4 0-2.6-0.6-1.3-0.6-2.1-1.6-0.8-1-1.1-2.3-0.4-1.4-0.1-2.8z"/>
			<path id="&lt;Compound Path&gt;" class="s0" d="m194.5 640.8h-24l-1.8 9.3h-10.5l6.6-33h33.1q1.1 0 2.1 0.5 0.9 0.5 1.6 1.3 0.7 0.8 1 1.9 0.3 1 0 2.1l-2.6 13.4q-0.4 2-1.9 3.2-1.6 1.3-3.6 1.3zm-4-8q0.3-0.2 0.4-0.6l1.2-6.1q0.1-0.5-0.2-0.9-0.4-0.4-0.9-0.4h-17.3l-1.7 8.2h17.8q0.4 0 0.7-0.2z"/>
			<path id="&lt;Compound Path&gt;" class="s0" d="m238.5 617.1q1.2 0 2.3 0.6 1.2 0.5 1.9 1.4 0.8 0.9 1.1 2.1 0.3 1.2 0 2.5l-4.3 22q-0.4 1.9-1.9 3.2-1.6 1.2-3.6 1.2h-23.9q-1.3 0-2.4-0.6-1.1-0.5-1.8-1.4-0.8-0.9-1.1-2.1-0.3-1.2-0.1-2.5l4.4-22q0.4-1.9 1.9-3.2 1.5-1.2 3.5-1.2zm-23.1 24.9q0.3 0.4 0.8 0.4h13.2q0.8 0 1.1-0.9l3-15.4q0.1-0.5-0.2-0.9-0.3-0.4-0.9-0.4h-13.1q-0.4 0-0.7 0.3-0.3 0.2-0.4 0.6l-3 15.4q-0.1 0.5 0.2 0.9z"/>
			<path id="&lt;Compound Path&gt;" class="s0" d="m269.7 640.8h-12.1l-1.9 9.3h-9.8l6.6-33h31.7q1.3 0 2.4 0.6 1.1 0.5 1.8 1.4 0.8 0.9 1.1 2.1 0.3 1.2 0.1 2.5l-2.5 12.6q-0.4 2-1.9 3.2-1.5 1.3-3.5 1.3h-2.1l4.2 9.3h-9.9zm7.9-8q0.3-0.2 0.4-0.6l1.2-6.1q0.1-0.5-0.2-0.9-0.3-0.4-0.9-0.4h-17.3l-1.7 8.3h17.8q0.4 0 0.7-0.3z"/>
			<path id="&lt;Compound Path&gt;" class="s0" d="m293.3 624.8l1.5-7.7h33.6l-1.5 7.7h-11l-5.1 25.3h-10.9l5-25.3z"/>
			<path id="&lt;Compound Path&gt;" class="s0" d="m361.3 650.1l-4-20.4-10.8 20.4h-17.8l6-33h10.2l-4.4 26.4 13.7-26.4h9.4l6 26.4 6.1-26.4h10.1l-7.1 33z"/>
			<path id="&lt;Compound Path&gt;" class="s0" d="m413.8 640.8h-14.3l-1.9 9.3h-9.9l5.7-28.6q0.4-1.9 1.9-3.2 1.5-1.2 3.5-1.2h22.9q1.3 0 2.4 0.6 1.1 0.5 1.8 1.4 0.8 0.9 1.1 2.1 0.3 1.2 0 2.5l-5.2 26.4h-9.9zm-12.8-7.7h14.3l1.4-7q0.1-0.5-0.2-0.9-0.4-0.4-0.9-0.4h-12q-0.9 0-1.1 0.9z"/>
			<path id="&lt;Compound Path&gt;" class="s0" d="m469.7 617.1l-1.5 7.7h-24.4q-0.3 0-0.6 0.3-0.4 0.2-0.4 0.6l-3.1 15.4q-0.1 0.5 0.2 0.9 0.4 0.4 0.9 0.4h14q0.3 0 0.6-0.3 0.3-0.2 0.4-0.6l0.9-4.6h-4.1q-0.7 0-1.4-0.3-0.6-0.4-1.1-0.9-0.4-0.5-0.6-1.3-0.2-0.7-0.1-1.5l0.6-2.6h17.9l-2.5 12.7q-0.3 1.6-1.1 2.9-0.8 1.3-1.9 2.2-1.1 0.9-2.6 1.5-1.4 0.5-3 0.5h-22.9q-1.1 0-2.1-0.5-1-0.5-1.7-1.3-0.6-0.8-0.9-1.8-0.3-1.1-0.1-2.2l4.6-22.8q0.4-1.9 1.9-3.2 1.5-1.2 3.5-1.2z"/>
			<path id="&lt;Compound Path&gt;" class="s0" d="m501.6 637.5h-17.6l-0.9 4.9h20.8l-1.5 7.7h-30.8l6.6-33h30.7l-1.5 7.7h-20.9l-1 4.9h17.7z"/>
			<path id="&lt;Compound Path&gt;" class="s0" d="m553.6 617.1l-6.6 33h-17l-5.2-26.1-5.2 26.1h-9.9l6.6-33h17l5.3 26.1 5.1-26.1z"/>
		</g>
		<g id="&lt;Group&gt;">
			<path id="&lt;Path&gt;" class="s1" d="m329.1 704.5c105 0 195.2 0.6 235.1 1.4-39.9 0.7-130.1 1.3-235.1 1.3-104.9 0-195.1-0.6-235-1.3 39.9-0.8 130.1-1.4 235-1.4z"/>
		</g>
		<g id="&lt;Group&gt;">
			<path id="&lt;Path&gt;" class="s1" d="m380.7 570.6c81.9 0 152.3 0.5 183.5 1.1-31.2 0.6-101.6 1-183.5 1-81.9 0-152.3-0.4-183.5-1 31.2-0.6 101.6-1.1 183.5-1.1z"/>
		</g>
	</g>
</svg>