<svg version="1.2" xmlns="http://www.w3.org/2000/svg" viewBox="0 0 598 717" width="598" height="717">
	<title>New Project</title>
	<style>
		.s0 { fill: #fefefe } 
		.s1 { fill: #d5de21 } 
	</style>
	<path id="&lt;Path&gt;" class="s0" d="m-0.2 720.6l271.9-382.9-99.4-142.7h84l59.7 84.7 95.2-132.6h-334.1l111.8 190.3z"/>
	<g id="&lt;Group&gt;">
		<path id="&lt;Path&gt;" class="s1" d="m231.3 514.5l81.9-114.8 55.6 70.3 79.2 1.4-91-130.6 241-341-170.9 337.6 116 181.2z"/>
	</g>
	<g id="&lt;Group&gt;">
		<path id="&lt;Path&gt;" class="s1" d="m330.7 708c105.5 0 196.1 0.6 236.3 1.4-40.2 0.8-130.8 1.3-236.3 1.3-105.5 0-196.1-0.5-236.3-1.3 40.2-0.8 130.8-1.4 236.3-1.4z"/>
	</g>
	<g id="&lt;Group&gt;">
		<path id="&lt;Path&gt;" class="s1" d="m382.5 573.5c82.4 0 153.1 0.4 184.5 1-31.4 0.6-102.1 1-184.5 1-82.3 0-153.1-0.4-184.4-1 31.3-0.6 102.1-1 184.4-1z"/>
	</g>
	<g id="Layer 1">
	</g>
</svg>